<svg xmlns="http://www.w3.org/2000/svg" viewBox="0 0 48.05 66.68"><defs><style>.cls-1{fill:#49cadb;}.cls-2{fill:#35b2bc;}.cls-3{fill:#73e2ea;}.cls-4{fill:#9b9b9b;}</style></defs><title>Blue Balloon</title><g id="Layer_2" data-name="Layer 2"><g id="Blue_Balloon" data-name="Blue Balloon"><path class="cls-1" d="M21.61,60.22s1.9.72.67,2S17.1,64.53,19,65.77s8.31,1.38,10-.62c.46-.72-1.49-1.3-3.08-2.09s-.7-2.38.29-2.83C26.55,60.08,21.61,60.22,21.61,60.22Z"/><path class="cls-2" d="M25.93,63.06c-1.6-.79-.7-2.38.29-2.83.33-.15-4.61,0-4.61,0s1.26.48,1.06,1.35c.54,1.64,5.1,1.69,3,4a5.33,5.33,0,0,1-3,1c2.48.16,5.35-.25,6.41-1.49C29.47,64.43,27.52,63.85,25.93,63.06Z"/><path class="cls-1" d="M48.05,24c0,19.4-14.17,36.65-24,36.65S0,43.12,0,24a24,24,0,1,1,48.05,0Z"/><path class="cls-2" d="M24,0a23.87,23.87,0,0,0-9.62,2,23.82,23.82,0,0,1,6.07-.78c13.27,0,21.72,11.68,21.72,25,0,16.07-8.13,30-16.52,34.34C35.39,58.78,48.05,42.37,48.05,24A24,24,0,0,0,24,0Z"/><path class="cls-3" d="M5.65,16.15C9.55,6.8,16.74,4.24,22.18,4.75s2.26,3.39-1.85,4.41-9.41,6.36-10,15.48C9.65,34.71,1.75,25.49,5.65,16.15Z"/><path class="cls-4" d="M24.66,62.89h-.22c-.63,0-2.69-.21-2.79-.93-.07-.43.45-.62.62-.68l.09,0,.09,0a10.18,10.18,0,0,0,2.12.26,5.12,5.12,0,0,0,.73-.05h.07a.62.62,0,0,1,.55.64.7.7,0,0,1-.34.59A1.77,1.77,0,0,1,24.66,62.89Zm-2.28-1a6.93,6.93,0,0,0,2.1.38c.59,0,.8-.1.82-.15v0a4.91,4.91,0,0,1-.73,0,11.68,11.68,0,0,1-2.17-.25Z"/></g></g></svg>