<svg xmlns="http://www.w3.org/2000/svg" viewBox="0 0 48.05 66.68"><defs><style>.cls-1{fill:#48d100;}.cls-2{fill:#45ba00;}.cls-3{fill:#65ea18;}</style></defs><title>Green Balloon</title><g id="Layer_2" data-name="Layer 2"><g id="Green_Balloon" data-name="Green Balloon"><path class="cls-1" d="M21.61,60.22s1.9.72.67,2S17.1,64.53,19,65.76s8.31,1.39,10-.61c.46-.72-1.49-1.3-3.08-2.09s-.7-2.38.29-2.83C26.55,60.08,21.61,60.22,21.61,60.22Z"/><path class="cls-2" d="M25.93,63.06c-1.6-.79-.7-2.38.29-2.83.33-.15-4.61,0-4.61,0s1.26.48,1.06,1.35c.54,1.64,5.1,1.69,3,4a5.34,5.34,0,0,1-3.05,1c2.49.16,5.36-.25,6.42-1.49C29.47,64.43,27.52,63.85,25.93,63.06Z"/><path class="cls-1" d="M48.05,24c0,19.4-14.17,36.65-24,36.65S0,43.12,0,24a24,24,0,1,1,48.05,0Z"/><path class="cls-2" d="M24,0a23.87,23.87,0,0,0-9.62,2,23.82,23.82,0,0,1,6.07-.78c13.27,0,21.72,11.68,21.72,25,0,16.07-8.13,30-16.52,34.34C35.39,58.78,48.05,42.37,48.05,24A24,24,0,0,0,24,0Z"/><path class="cls-3" d="M5.65,16.15C9.55,6.8,16.74,4.24,22.18,4.75s2.26,3.39-1.85,4.41-9.41,6.36-10,15.48C9.65,34.71,1.75,25.49,5.65,16.15Z"/></g></g></svg>