<svg xmlns="http://www.w3.org/2000/svg" viewBox="0 0 48.05 66.68"><defs><style>.cls-1{fill:#ffcf03;}.cls-2{fill:#ffbe06;}.cls-3{fill:#fce06b;}.cls-4{fill:#9b9b9b;}</style></defs><title>Yellow Balloon</title><g id="Layer_2" data-name="Layer 2"><g id="Yellow_Balloon" data-name="Yellow Balloon"><path class="cls-1" d="M21.61,60.22s1.9.72.67,2S17.1,64.53,19,65.76s8.31,1.39,10-.61c.46-.72-1.49-1.3-3.08-2.09s-.7-2.38.29-2.83C26.55,60.08,21.61,60.22,21.61,60.22Z"/><path class="cls-2" d="M25.93,63.06c-1.6-.79-.7-2.38.29-2.83.33-.15-4.61,0-4.61,0s1.26.48,1.06,1.35c.54,1.64,5.1,1.69,3,4a5.33,5.33,0,0,1-3,1c2.48.16,5.35-.25,6.41-1.49C29.47,64.43,27.52,63.85,25.93,63.06Z"/><path class="cls-1" d="M48.05,24c0,19.4-14.17,36.65-24,36.65S0,43.12,0,24a24,24,0,1,1,48.05,0Z"/><path class="cls-2" d="M24,0a23.87,23.87,0,0,0-9.62,2,23.82,23.82,0,0,1,6.07-.78c13.27,0,21.72,11.68,21.72,25,0,16.07-8.13,30-16.52,34.34C35.39,58.78,48.05,42.37,48.05,24A24,24,0,0,0,24,0Z"/><path class="cls-3" d="M5.65,16.15C9.55,6.8,16.74,4.23,22.18,4.75s2.26,3.39-1.85,4.41-9.41,6.36-10,15.48C9.65,34.7,1.75,25.49,5.65,16.15Z"/><path class="cls-4" d="M24.66,62.19h-.23c-.63,0-2.68-.21-2.79-.93-.06-.42.45-.62.62-.68l.09,0,.09,0a11,11,0,0,0,2.12.26,3.91,3.91,0,0,0,.73-.06h.07a.62.62,0,0,1,.55.64.67.67,0,0,1-.34.58A1.66,1.66,0,0,1,24.66,62.19Zm-2.28-1a7.1,7.1,0,0,0,2.09.38c.6,0,.8-.11.82-.16s0,0,0,0a4.91,4.91,0,0,1-.73,0,10.64,10.64,0,0,1-2.16-.26Z"/></g></g></svg>